<?xml version="1.0" encoding="iso-8859-1"?>
<!-- Generator: Adobe Illustrator 19.0.0, SVG Export Plug-In . SVG Version: 6.00 Build 0)  -->
<svg version="1.1" id="Capa_1" xmlns="http://www.w3.org/2000/svg" xmlns:xlink="http://www.w3.org/1999/xlink" x="0px" y="0px"
	 viewBox="0 0 413.12 413.12" style="enable-background:new 0 0 413.12 413.12;" xml:space="preserve">
<g>
	<g>
		<path d="M344.64,31.44H68.48C35.36,31.44,0,49.44,0,100v141.2c0,33.12,18,68.48,68.48,68.48h111.44l-22.24,56h-36.24
			c-4.418,0-8,3.582-8,8s3.582,8,8,8h170.24c4.418,0,8-3.582,8-8s-3.582-8-8-8h-36.16l-22.24-56h111.36
			c50.48,0,68.48-35.36,68.48-68.48V100C413.12,66.88,395.12,31.44,344.64,31.44z M238.56,366h-64l22.24-56h18.88L238.56,366z
			 M344.64,293.68l0.24,0.32H68.48c-36.48,0-48-21.76-51.2-38.96h378.56C392.48,271.92,381.12,293.68,344.64,293.68z M397.12,238.72
			H16V100c0-47.44,36.72-52.56,52.48-52.56h276.16c47.36,0,52.48,36.72,52.48,52.56L397.12,238.72z"/>
	</g>
</g>
<g>
	<g>
		<path d="M331.36,100.08c-2.195-1.482-4.98-1.781-7.44-0.8l-61.36,24.4v-12.16c0-9.985-8.095-18.08-18.08-18.08H117.2
			c-9.985,0-18.08,8.095-18.08,18.08V188c0,9.985,8.095,18.08,18.08,18.08h126.96c9.984,0.177,18.22-7.773,18.397-17.757
			c0.002-0.108,0.003-0.215,0.003-0.323v-11.28l61.76,24.4c4.241,1.239,8.683-1.194,9.923-5.435c0.19-0.652,0.297-1.326,0.317-2.005
			v-86.96C334.637,104.118,333.444,101.641,331.36,100.08z M244.48,190.08H117.2c-1.149,0-2.08-0.931-2.08-2.08v-76.48
			c0-1.149,0.931-2.08,2.08-2.08h126.96c1.149,0,2.08,0.931,2.08,2.08l0.32,76.48C246.56,189.149,245.629,190.08,244.48,190.08z
			 M318.56,181.92l-56-22.24v-18.96l56-22V181.92z"/>
	</g>
</g>
<g>
	<g>
		<path d="M176,157.44h-42.96c-4.418,0-8,3.582-8,8s3.582,8,8,8H176c4.418,0,8-3.582,8-8S180.418,157.44,176,157.44z"/>
	</g>
</g>
<g>
	<g>
		<path d="M176,126.72h-42.96c-4.418,0-8,3.582-8,8s3.582,8,8,8H176c4.418,0,8-3.582,8-8S180.418,126.72,176,126.72z"/>
	</g>
</g>
<g>
</g>
<g>
</g>
<g>
</g>
<g>
</g>
<g>
</g>
<g>
</g>
<g>
</g>
<g>
</g>
<g>
</g>
<g>
</g>
<g>
</g>
<g>
</g>
<g>
</g>
<g>
</g>
<g>
</g>
</svg>
